<svg xmlns="http://www.w3.org/2000/svg" viewBox="0 0 23 23" height="23" width="23" xmlns:m="https://www.mapbox.com"><rect fill="none" width="23" height="23"/><rect width="23" height="23" rx="11.5" ry="11.5"/><path fill="#fff" transform="translate(4 4)" d="M6.8182,0.6818H4.7727	C4.0909,0.6818,4.0909,0,4.7727,0h5.4545c0.6818,0,0.6818,0.6818,0,0.6818H8.1818c0,0,0.8182,0.5909,0.8182,1.9545V4h6v2L9,8l-0.5,5	l2.5,1.3182V15H4v-0.6818L6.5,13L6,8L0,6V4h6V2.6364C6,1.2727,6.8182,0.6818,6.8182,0.6818z"/><m:metadata><m:parameters><m:parameter m:name="color-1" m:type="color" m:value="#000000"/><m:parameter m:name="color-2" m:type="color" m:value="#FFFFFF"/></m:parameters></m:metadata></svg>