<svg xmlns="http://www.w3.org/2000/svg" viewBox="0 0 23 23" height="23" width="23" xmlns:m="https://www.mapbox.com"><rect fill="none" width="23" height="23"/><rect width="23" height="23" rx="11.5" ry="11.5"/><path fill="#fff" transform="translate(4 4)" d="M5.294,4.382,6,9.5a.979.979,0,0,0,1,1H8a.979.979,0,0,0,1-1l.706-5.118C9.706,3,7.5,3,7.5,3S5.291,3,5.294,4.382ZM3.5,5C2,5,2,6,2,6l1,4H4.5a.793.793,0,0,0,.794-.765L4.5,5Zm-2,2.5a1.533,1.533,0,0,0-1.059.412A1.366,1.366,0,0,0,0,8.794V11H.882A1.02,1.02,0,0,0,2,10ZM11.5,5C13,5,13,6,13,6l-1,4H10.5a.793.793,0,0,1-.794-.765L10.5,5Zm2,2.5a1.533,1.533,0,0,1,1.059.412A1.366,1.366,0,0,1,15,8.794V11h-.882A1.02,1.02,0,0,1,13,10Z"/><m:metadata><m:parameters><m:parameter m:name="color-1" m:type="color" m:value="#000000"/><m:parameter m:name="color-2" m:type="color" m:value="#FFFFFF"/></m:parameters></m:metadata></svg>