<svg xmlns="http://www.w3.org/2000/svg" viewBox="0 0 23 23" height="23" width="23" xmlns:m="https://www.mapbox.com"><rect fill="none" width="23" height="23"/><rect width="23" height="23" rx="11.5" ry="11.5"/><path fill="#fff" transform="translate(4 4)" d="M12.5,12.75a1,1,0,0,1-1-.9995V7.25H10a1,1,0,0,1-1-1v-2H6v2a1,1,0,0,1-1,1H3.5v4.5a1,1,0,0,1-2,0V6.25a1,1,0,0,1,1-1H4v-2a1,1,0,0,1,1-1h5a1,1,0,0,1,1,1v2h1.5a1,1,0,0,1,1,1v5.5a1,1,0,0,1-.9995,1Z"/><m:metadata><m:parameters><m:parameter m:name="color-1" m:type="color" m:value="#000000"/><m:parameter m:name="color-2" m:type="color" m:value="#FFFFFF"/></m:parameters></m:metadata></svg>