<svg xmlns="http://www.w3.org/2000/svg" viewBox="0 0 23 23" height="23" width="23" xmlns:m="https://www.mapbox.com"><rect fill="none" width="23" height="23"/><rect width="23" height="23" rx="11.5" ry="11.5"/><path fill="#fff" transform="translate(4 4)" d="M7.5 12.3C4.84898 12.3 2.7 10.151 2.7 7.5C2.7 4.84898 4.84898 2.7 7.5 2.7C10.151 2.7 12.3 4.84898 12.3 7.5C12.3 10.151 10.151 12.3 7.5 12.3ZM7.5 14C11.0899 14 14 11.0899 14 7.5C14 3.9101 11.0899 1 7.5 1C3.9101 1 1 3.9101 1 7.5C1 11.0899 3.9101 14 7.5 14Z"/><m:metadata><m:parameters><m:parameter m:name="color-1" m:type="color" m:value="#000000"/><m:parameter m:name="color-2" m:type="color" m:value="#FFFFFF"/></m:parameters></m:metadata></svg>