<svg xmlns="http://www.w3.org/2000/svg" viewBox="0 0 23 23" height="23" width="23" xmlns:m="https://www.mapbox.com"><rect fill="none" width="23" height="23"/><rect width="23" height="23" rx="11.5" ry="11.5"/><path fill="#fff" transform="translate(4 4)" d="M13.5 11h-1.8L8.2.5C8-.2 7-.2 6.8.5L3.3 11H1.5c-.3 0-.5.2-.5.5v1c0 .3.2.5.5.5h12c.3 0 .5-.2.5-.5v-1c0-.3-.2-.5-.5-.5ZM7 3h1l.7 2H6.4L7 3ZM5.7 7h3.6l.7 2H5l.7-2Z"/><m:metadata><m:parameters><m:parameter m:name="color-1" m:type="color" m:value="#000000"/><m:parameter m:name="color-2" m:type="color" m:value="#FFFFFF"/></m:parameters></m:metadata></svg>