<svg xmlns="http://www.w3.org/2000/svg" viewBox="0 0 23 23" height="23" width="23" xmlns:m="https://www.mapbox.com"><rect fill="none" width="23" height="23"/><rect width="23" height="23" rx="11.5" ry="11.5"/><path fill="#fff" transform="translate(4 4)" d="M7.5 14C11.0899 14 14 11 14 7.50003C14 4.5 11.5 2 11.5 2L10.5 5.5L7.5 1L4.5 5.5L3.5 2C3.5 2 1 4.5 1 7.50003C1 11 3.91015 14 7.5 14ZM7.5 12.5C6.11929 12.5 5 11.3807 5 10C5 8.61929 7.5 5.5 7.5 5.5C7.5 5.5 10 8.61929 10 10C10 11.3807 8.88071 12.5 7.5 12.5Z"/><m:metadata><m:parameters><m:parameter m:name="color-1" m:type="color" m:value="#000000"/><m:parameter m:name="color-2" m:type="color" m:value="#FFFFFF"/></m:parameters></m:metadata></svg>