<svg xmlns="http://www.w3.org/2000/svg" viewBox="0 0 23 23" height="23" width="23" xmlns:m="https://www.mapbox.com"><rect fill="none" width="23" height="23"/><rect width="23" height="23" rx="11.5" ry="11.5"/><path fill="#fff" transform="translate(4 4)" d="M11.981,9.481,11.26,8.76A4.979,4.979,0,1,1,4.24,1.74l-.721-.721A5.991,5.991,0,0,0,7,11.475V13H6.5a.5.5,0,0,0,0,1h2a.5.5,0,0,0,0-1H8V11.473A5.983,5.983,0,0,0,11.981,9.481ZM7.5,9A3.5,3.5,0,1,0,4,5.5,3.5,3.5,0,0,0,7.5,9Zm1-5,.364-.592a2.5,2.5,0,0,1,.823.9L9.5,5h-1ZM6.656,3.156,7.5,4V5L8,6H9.94a2.494,2.494,0,0,1-1.5,1.814L8,7H6.5L5.05,5A2.5,2.5,0,0,1,6.656,3.156Z"/><m:metadata><m:parameters><m:parameter m:name="color-1" m:type="color" m:value="#000000"/><m:parameter m:name="color-2" m:type="color" m:value="#FFFFFF"/></m:parameters></m:metadata></svg>