<svg xmlns="http://www.w3.org/2000/svg" viewBox="0 0 23 23" height="23" width="23" xmlns:m="https://www.mapbox.com"><rect fill="none" width="23" height="23"/><rect width="23" height="23" rx="11.5" ry="11.5"/><path fill="#fff" transform="translate(4 4)" d="M13.5,13h-3V9h3a.5.5,0,0,0,.4092-.7871L11.66,5h.84a.5.5,0,0,0,.3838-.82l-2.5-3a.5155.5155,0,0,0-.7676,0l-2.5,3A.5.5,0,0,0,7.5,5h.84L6.0908,8.2129A.5.5,0,0,0,6.5,9h3v4H4V11H5.5a.5.5,0,0,0,0-1h-4a.5.5,0,0,0,0,1H3v2H1.5a.5.5,0,0,0,0,1h12a.5.5,0,0,0,0-1Z"/><m:metadata><m:parameters><m:parameter m:name="color-1" m:type="color" m:value="#000000"/><m:parameter m:name="color-2" m:type="color" m:value="#FFFFFF"/></m:parameters></m:metadata></svg>