<svg xmlns="http://www.w3.org/2000/svg" viewBox="0 0 23 23" height="23" width="23" xmlns:m="https://www.mapbox.com"><rect fill="none" width="23" height="23"/><rect width="23" height="23" rx="11.5" ry="11.5"/><path fill="#fff" transform="translate(4 4)" d="m7.5 1c-1 0-1 1-2 1h-3.5c-.54467 0-1 .45533-1 1v7c0 .5447.45533 1 1 1h5v2.5s0 .5.5.5.5-.5.5-.5v-2.5h5c.5447 0 1-.4553 1-1v-7c0-.54467-.4553-1-1-1h-3.5c-1 0-1-1-2-1zm-4.5 4v-1h9v1zm0 1h4v1h-4zm0 2h7v1h-7z"/><m:metadata><m:parameters><m:parameter m:name="color-1" m:type="color" m:value="#000000"/><m:parameter m:name="color-2" m:type="color" m:value="#FFFFFF"/></m:parameters></m:metadata></svg>