<svg xmlns="http://www.w3.org/2000/svg" viewBox="0 0 23 23" height="23" width="23" xmlns:m="https://www.mapbox.com"><rect fill="none" width="23" height="23"/><rect width="23" height="23" rx="11.5" ry="11.5"/><path fill="#fff" transform="translate(4 4)" d="M5.44,8.17a3.473,3.473,0,0,0,2-.63A3.5,3.5,0,0,0,9,8.14h.44L8,13.7a.5.5,0,0,1-.92,0Zm6-3.473a2,2,0,0,1-4,0h0a2,2,0,1,1-2-2h.12a2,2,0,1,1,3.75,0h.13A2,2,0,0,1,11.439,4.7Z"/><m:metadata><m:parameters><m:parameter m:name="color-1" m:type="color" m:value="#000000"/><m:parameter m:name="color-2" m:type="color" m:value="#FFFFFF"/></m:parameters></m:metadata></svg>