<svg xmlns="http://www.w3.org/2000/svg" viewBox="0 0 23 23" height="23" width="23" xmlns:m="https://www.mapbox.com"><rect fill="none" width="23" height="23"/><rect width="23" height="23" rx="11.5" ry="11.5"/><path fill="#fff" transform="translate(4 4)" d="M12.1,2.952A2.988,2.988,0,0,0,6.99,4.917l3.142,3.142A2.988,2.988,0,0,0,12.1,2.952Zm-7.428,5.3L2.55,10.377a1,1,0,0,0,0,1.414l.707.707a1,1,0,0,0,1.414,0l2.121-2.121L8.914,8.255,6.793,6.134Zm.741,2.087-.707-.707L6.793,7.548l.707.707Z"/><m:metadata><m:parameters><m:parameter m:name="color-1" m:type="color" m:value="#000000"/><m:parameter m:name="color-2" m:type="color" m:value="#FFFFFF"/></m:parameters></m:metadata></svg>