<svg xmlns="http://www.w3.org/2000/svg" viewBox="0 0 23 23" height="23" width="23" xmlns:m="https://www.mapbox.com"><rect fill="none" width="23" height="23"/><rect width="23" height="23" rx="11.5" ry="11.5"/><path fill="#fff" transform="translate(4 4)" d="M1 4a2 2 0 1 1 4 0v8a1 1 0 0 1-1 1H2a1 1 0 0 1-1-1V4Zm3 0a1 1 0 1 0-2 0 1 1 0 0 0 2 0Zm4.5 2L7 3H6v3h2.5ZM10 6h1.5L10 3H8.5L10 6Zm3.25 0H13l-1.5-3h1.75a.75.75 0 0 1 .75.75v1.5a.75.75 0 0 1-.75.75Z"/><m:metadata><m:parameters><m:parameter m:name="color-1" m:type="color" m:value="#000000"/><m:parameter m:name="color-2" m:type="color" m:value="#FFFFFF"/></m:parameters></m:metadata></svg>