<svg xmlns="http://www.w3.org/2000/svg" viewBox="0 0 23 23" height="23" width="23" xmlns:m="https://www.mapbox.com"><rect fill="none" width="23" height="23"/><rect width="23" height="23" rx="11.5" ry="11.5"/><path fill="#fff" transform="translate(4 4)" d="m7.5 1c-.3 0-.4.2-.6.4l-5.8 9.5c-.1.1-.1.3-.1.4 0 .5.4.7.7.7h11.6c.4 0 .7-.2.7-.7 0-.2 0-.2-.1-.4l-5.7-9.5c-.2-.2-.4-.4-.7-.4zm0 1.5 3.3 5.5h-.8l-1.5-1.5-1 1.5-1-1.5-1.5 1.5h-.9z"/><m:metadata><m:parameters><m:parameter m:name="color-1" m:type="color" m:value="#000000"/><m:parameter m:name="color-2" m:type="color" m:value="#FFFFFF"/></m:parameters></m:metadata></svg>