<svg xmlns="http://www.w3.org/2000/svg" viewBox="0 0 23 23" height="23" width="23" xmlns:m="https://www.mapbox.com"><rect fill="none" width="23" height="23"/><rect width="23" height="23" rx="11.5" ry="11.5"/><path fill="#fff" transform="translate(4 4)" d="m13.5 3.5h-1v-.9973c0-.2777-.2251-.5027-.5027-.5027h-10.4946c-.2776 0-.5027.225-.5027.5027v2.9946c0 .2776.2251.5027.5027.5027h10.4946c.2776 0 .5027-.2251.5027-.5027v-.9973h.5v3.1021l-6.1123 1.4106c-.2271.0527-.3877.2549-.3877.4873v1.5074c-.2783.02-.5.246-.5.5295v2.9261c0 .2966.2404.537.5369.537h.9261c.2966 0 .537-.2404.537-.5369v-2.9261c0-.2834-.2217-.5095-.5-.5295v-1.11l6.1123-1.4102c.2266-.0522.3877-.2544.3877-.4873v-4c0-.2764-.2236-.5-.5-.5z"/><m:metadata><m:parameters><m:parameter m:name="color-1" m:type="color" m:value="#000000"/><m:parameter m:name="color-2" m:type="color" m:value="#FFFFFF"/></m:parameters></m:metadata></svg>