<svg xmlns="http://www.w3.org/2000/svg" viewBox="0 0 23 23" height="23" width="23" xmlns:m="https://www.mapbox.com"><rect fill="none" width="23" height="23"/><rect width="23" height="23" rx="11.5" ry="11.5"/><path fill="#fff" transform="translate(4 4)" d="M7.5,1A6.5,6.5,0,1,0,14,7.5,6.5,6.5,0,0,0,7.5,1Zm2.6,2.84L7.5,6.44,4.9,3.84A4.4428,4.4428,0,0,1,10.1,3.84ZM3.84,4.9007,6.4394,7.5l-2.6,2.5993A4.4429,4.4429,0,0,1,3.84,4.9007ZM4.9,11.16l2.6-2.6,2.6,2.6A4.4428,4.4428,0,0,1,4.9,11.16Zm6.26-1.0606L8.5606,7.5l2.6-2.5993a4.4429,4.4429,0,0,1-.0006,5.1986Z"/><m:metadata><m:parameters><m:parameter m:name="color-1" m:type="color" m:value="#000000"/><m:parameter m:name="color-2" m:type="color" m:value="#FFFFFF"/></m:parameters></m:metadata></svg>