<svg xmlns="http://www.w3.org/2000/svg" viewBox="0 0 23 23" height="23" width="23" xmlns:m="https://www.mapbox.com"><rect fill="none" width="23" height="23"/><rect width="23" height="23" rx="11.5" ry="11.5"/><path fill="#fff" transform="translate(4 4)" d="M12.5,2.5H2.5a.9448.9448,0,0,0-1,1,.9448.9448,0,0,0,1,1H3V12a.9448.9448,0,0,0,1,1,.9448.9448,0,0,0,1-1V8h5v4a.9448.9448,0,0,0,1,1,.9448.9448,0,0,0,1-1V4.5h.5a.9448.9448,0,0,0,1-1,.9448.9448,0,0,0-1-1ZM10,6H8V4.5h2ZM7,6H5V4.5H7Z"/><m:metadata><m:parameters><m:parameter m:name="color-1" m:type="color" m:value="#000000"/><m:parameter m:name="color-2" m:type="color" m:value="#FFFFFF"/></m:parameters></m:metadata></svg>