<svg xmlns="http://www.w3.org/2000/svg" viewBox="0 0 23 23" height="23" width="23" xmlns:m="https://www.mapbox.com"><rect fill="none" width="23" height="23"/><rect width="23" height="23" rx="11.5" ry="11.5"/><path fill="#fff" transform="translate(4 4)" d="M4.457,11.9892,1,8V7H14V8l-3.4961,3.9891ZM3.9882,2.5a.5.5,0,0,0-1,0v.5671l-1.7969.3675a.25.25,0,1,0,.094.4911l1.7029-.2776v.5662l-1.75.0357a.25.25,0,0,0,0,.5l1.75.0357V5.998h1Zm9.5,1.5-7.5.2625V2.9951l7.594-1.0737a.5.5,0,0,0-.1881-.9822L5.9792,2.4555a.4963.4963,0,0,0-.991.0445v.2276l-.493.1009V3.18l.493-.08V4.2974l-.493.01v.4608L13.4882,5a.5.5,0,0,0,0-1ZM10,13H5v.5757h5Z"/><m:metadata><m:parameters><m:parameter m:name="color-1" m:type="color" m:value="#000000"/><m:parameter m:name="color-2" m:type="color" m:value="#FFFFFF"/></m:parameters></m:metadata></svg>