<svg xmlns="http://www.w3.org/2000/svg" viewBox="0 0 23 23" height="23" width="23" xmlns:m="https://www.mapbox.com"><rect fill="none" width="23" height="23"/><rect width="23" height="23" rx="11.5" ry="11.5"/><path fill="#fff" transform="translate(4 4)" d="m2 10 12 1.495V12H2v-2Zm12-4-1 1v.583L5.196 4.332l.063-.125L6.61 2.845h.831a.35.35 0 0 0 0-.7h-.976a.352.352 0 0 0-.248.103L4.723 3.753a.371.371 0 0 0-.066.09l-.109.219L2 3c0 2-.03 3.958 2.86 4.5C6.28 7.765 13 9 13 9l2-2-1-1Z"/><m:metadata><m:parameters><m:parameter m:name="color-1" m:type="color" m:value="#000000"/><m:parameter m:name="color-2" m:type="color" m:value="#FFFFFF"/></m:parameters></m:metadata></svg>