<svg xmlns="http://www.w3.org/2000/svg" viewBox="0 0 23 23" height="23" width="23" xmlns:m="https://www.mapbox.com"><rect fill="none" width="23" height="23"/><rect width="23" height="23" rx="11.5" ry="11.5"/><path fill="#fff" transform="translate(4 4)" d="M4.5 4V2C4.5 1.44772 4.94772 1 5.5 1H9.5C10.0523 1 10.5 1.44772 10.5 2V4H12C12.5523 4 13 4.44772 13 5V11C13 11.5523 12.5523 12 12 12H3C2.44771 12 2 11.5523 2 11V5C2 4.44772 2.44772 4 3 4H4.5ZM5.5 2V4H9.5V2H5.5Z"/><m:metadata><m:parameters><m:parameter m:name="color-1" m:type="color" m:value="#000000"/><m:parameter m:name="color-2" m:type="color" m:value="#FFFFFF"/></m:parameters></m:metadata></svg>