<svg xmlns="http://www.w3.org/2000/svg" viewBox="0 0 23 23" height="23" width="23" xmlns:m="https://www.mapbox.com"><rect fill="none" width="23" height="23"/><rect width="23" height="23" rx="11.5" ry="11.5"/><path fill="#fff" transform="translate(4 4)" d="M3 1.5a1.5 1.5 0 1 0 3 0 1.5 1.5 0 0 0-3 0ZM11.5 0a1.5 1.5 0 1 1 0 3 1.5 1.5 0 0 1 0-3ZM3.29 4a1 1 0 0 0-.868.504L.566 7.752a.5.5 0 1 0 .868.496l1.412-2.472A345.048 345.048 0 0 0 1 11h2v2.5a.5.5 0 0 0 1 0V11h1v2.5a.5.5 0 0 0 1 0V11h2L6.103 5.687l1.463 2.561a.5.5 0 1 0 .868-.496L6.578 4.504A1 1 0 0 0 5.71 4H3.29ZM9 4.5a.5.5 0 0 1 .5-.5h4a.5.5 0 0 1 .5.5v5a.5.5 0 0 1-1 0v4a.5.5 0 0 1-1 0v-4h-1v4a.5.5 0 0 1-1 0v-4a.5.5 0 0 1-1 0v-5Z"/><m:metadata><m:parameters><m:parameter m:name="color-1" m:type="color" m:value="#000000"/><m:parameter m:name="color-2" m:type="color" m:value="#FFFFFF"/></m:parameters></m:metadata></svg>