<svg xmlns="http://www.w3.org/2000/svg" viewBox="0 0 23 23" height="23" width="23" xmlns:m="https://www.mapbox.com"><rect fill="none" width="23" height="23"/><rect width="23" height="23" rx="11.5" ry="11.5"/><path fill="#fff" transform="translate(4 4)" d="M13,4H9l0-3L7.5,0L6,1v3H2L1,5v1h13V5L13,4z M7.5,1.5c0.4,0,0.7,0.3,0.7,0.8S7.9,3,7.5,3S6.7,2.7,6.7,2.2	C6.7,1.8,7.1,1.5,7.5,1.5z M13,7H2v4l-1,1.5V14h13v-1.5L13,11V7z M5,12.5H4V8h1V12.5z M8,12.5H7V8h1V12.5z M11,12.5h-1V8h1V12.5z"/><m:metadata><m:parameters><m:parameter m:name="color-1" m:type="color" m:value="#000000"/><m:parameter m:name="color-2" m:type="color" m:value="#FFFFFF"/></m:parameters></m:metadata></svg>