<svg xmlns="http://www.w3.org/2000/svg" viewBox="0 0 23 23" height="23" width="23" xmlns:m="https://www.mapbox.com"><rect fill="none" width="23" height="23"/><rect width="23" height="23" rx="11.5" ry="11.5"/><path fill="#fff" transform="translate(4 4)" d="M13.5,5c-0.0762,0.0003-0.1514-0.0168-0.22-0.05L7.5,2L1.72,4.93C1.4632,5.0515,1.1565,4.9418,1.035,4.685	S1.0232,4.1215,1.28,4L7.5,0.92L13.72,4c0.2761,0.0608,0.4508,0.3339,0.39,0.61C14.0492,4.8861,13.7761,5.0608,13.5,5z M5,10H2v3h3	V10z M9,10H6v3h3V10z M13,10h-3v3h3V10z M11,6H8v3h3V6z M7,6H4v3h3V6z"/><m:metadata><m:parameters><m:parameter m:name="color-1" m:type="color" m:value="#000000"/><m:parameter m:name="color-2" m:type="color" m:value="#FFFFFF"/></m:parameters></m:metadata></svg>